<svg xmlns="http://www.w3.org/2000/svg" version="1.1" xmlns:xlink="http://www.w3.org/1999/xlink" xmlns:svgjs="http://svgjs.com/svgjs" width="1440" height="560" preserveAspectRatio="none" viewBox="0 0 1440 560"><g mask="url(&quot;#SvgjsMask1000&quot;)" fill="none"><rect width="1440" height="560" x="0" y="0" fill="#1e3266"></rect><path d="M1512 560L0 560 L0 289.84Q47.78 265.62, 72 313.39Q137.48 258.87, 192 324.34Q239.27 251.61, 312 298.87Q339.56 254.43, 384 281.98Q435.72 261.7, 456 313.42Q518.11 303.53, 528 365.64Q569.48 287.12, 648 328.59Q687.36 247.94, 768 287.3Q809.23 256.53, 840 297.76Q923.71 261.47, 960 345.18Q1034.95 300.13, 1080 375.09Q1093.98 269.07, 1200 283.05Q1241.22 252.27, 1272 293.49Q1370.35 271.84, 1392 370.19Q1430.8 288.99, 1512 327.79z" fill="#182f5d"></path><path d="M1536 560L0 560 L0 396.01Q60.91 384.92, 72 445.84Q77.44 379.28, 144 384.73Q192.79 313.52, 264 362.31Q320.83 347.14, 336 403.98Q369.16 317.14, 456 350.3Q502.6 324.9, 528 371.5Q604.81 328.31, 648 405.11Q681.3 318.41, 768 351.71Q841.61 305.32, 888 378.93Q947.68 366.61, 960 426.29Q963.8 358.09, 1032 361.89Q1095.24 353.13, 1104 416.37Q1125.06 365.43, 1176 386.49Q1241.83 332.31, 1296 398.14Q1333.55 315.69, 1416 353.23Q1491.51 308.74, 1536 384.24z" fill="#25467d"></path><path d="M1464 560L0 560 L0 454Q52.03 434.03, 72 486.06Q100.06 442.12, 144 470.18Q170.16 424.34, 216 450.5Q264.54 379.04, 336 427.58Q431.4 402.98, 456 498.37Q524.51 446.88, 576 515.4Q597.94 417.33, 696 439.27Q737.33 408.6, 768 449.93Q852.64 414.57, 888 499.21Q929.28 468.49, 960 509.77Q999.36 429.13, 1080 468.48Q1151.35 419.83, 1200 491.18Q1272.08 443.25, 1320 515.33Q1336.3 459.63, 1392 475.92Q1441.7 453.62, 1464 503.32z" fill="#356cb1"></path><path d="M1512 560L0 560 L0 570.37Q47.13 497.5, 120 544.63Q141.31 493.94, 192 515.25Q278.31 481.56, 312 567.86Q313.45 497.31, 384 498.75Q467.24 461.99, 504 545.23Q527.92 497.15, 576 521.07Q630.3 455.38, 696 509.68Q748.62 490.3, 768 542.93Q819.74 474.66, 888 526.4Q939.75 458.15, 1008 509.91Q1072.7 502.62, 1080 567.32Q1107.4 522.73, 1152 550.13Q1195.24 473.38, 1272 516.62Q1338.76 463.38, 1392 530.15Q1476.25 494.4, 1512 578.65z" fill="white"></path></g><defs><mask id="SvgjsMask1000"><rect width="1440" height="560" fill="#ffffff"></rect></mask></defs></svg>