<svg xmlns="http://www.w3.org/2000/svg" version="1.1" xmlns:xlink="http://www.w3.org/1999/xlink" xmlns:svgjs="http://svgjs.com/svgjs" width="1440" height="560" preserveAspectRatio="none" viewBox="0 0 1440 560"><g mask="url(&quot;#SvgjsMask1002&quot;)" fill="none"><rect width="1440" height="560" x="0" y="0" fill="url(#SvgjsLinearGradient1003)"></rect><path d="M1440 0L1334.05 0L1440 277.73z" fill="rgba(255, 255, 255, .1)"></path><path d="M1334.05 0L1440 277.73L1440 327.84000000000003L1308.59 0z" fill="rgba(255, 255, 255, .075)"></path><path d="M1308.59 0L1440 327.84000000000003L1440 377.81000000000006L719.91 0z" fill="rgba(255, 255, 255, .05)"></path><path d="M719.9100000000001 0L1440 377.81000000000006L1440 461.08000000000004L386.75000000000006 0z" fill="rgba(255, 255, 255, .025)"></path><path d="M0 560L338.71 560L0 300.74z" fill="rgba(0, 0, 0, .1)"></path><path d="M0 300.74L338.71 560L636.42 560L0 253.06z" fill="rgba(0, 0, 0, .075)"></path><path d="M0 253.06L636.42 560L979.0899999999999 560L0 159.22z" fill="rgba(0, 0, 0, .05)"></path><path d="M0 159.22000000000003L979.0899999999999 560L1133.3 560L0 64.51000000000003z" fill="rgba(0, 0, 0, .025)"></path></g><defs><mask id="SvgjsMask1002"><rect width="1440" height="560" fill="#ffffff"></rect></mask><linearGradient x1="15.28%" y1="-39.29%" x2="84.72%" y2="139.29%" gradientUnits="userSpaceOnUse" id="SvgjsLinearGradient1003"><stop stop-color="#0e2a47" offset="0"></stop><stop stop-color="#00459e" offset="1"></stop></linearGradient></defs></svg>