<svg xmlns="http://www.w3.org/2000/svg" version="1.1" xmlns:xlink="http://www.w3.org/1999/xlink" xmlns:svgjs="http://svgjs.com/svgjs" width="1440" height="560" preserveAspectRatio="none" viewBox="0 0 1440 560"><g mask="url(&quot;#SvgjsMask1000&quot;)" fill="none"><rect width="1440" height="560" x="0" y="0" fill="#0e2a47"></rect><path d="M -237.98379002656617,100 C -141.98,159 50.02,375.2 242.01620997343383,395 C 434.02,414.8 530.02,218.4 722.0162099734339,199 C 914.02,179.6 1010.02,285.4 1202.016209973434,298 C 1394.02,310.6 1634.42,252.4 1682.016209973434,262 C 1729.61,271.6 1488.4,329.2 1440,346" stroke="rgba(51, 121, 194, 0.58)" stroke-width="2"></path><path d="M -586.9028010898331,360 C -490.9,339 -298.9,244.8 -106.90280108983313,255 C 85.1,265.2 181.1,447.4 373.09719891016687,411 C 565.1,374.6 661.1,77.8 853.0971989101669,73 C 1045.1,68.2 1215.72,348.4 1333.0971989101668,387 C 1450.48,425.6 1418.62,290.2 1440,266" stroke="rgba(51, 121, 194, 0.58)" stroke-width="2"></path><path d="M -782.7339860676773,476 C -686.73,394.2 -494.73,90.8 -302.7339860676772,67 C -110.73,43.2 -14.73,348 177.26601393232278,357 C 369.27,366 465.27,122.4 657.2660139323227,112 C 849.27,101.6 980.72,295.4 1137.2660139323227,305 C 1293.81,314.6 1379.45,189 1440,160" stroke="rgba(51, 121, 194, 0.58)" stroke-width="2"></path><path d="M -184.18864787845513,197 C -88.19,229.2 103.81,354 295.81135212154487,358 C 487.81,362 583.81,197.6 775.8113521215448,217 C 967.81,236.4 1063.81,477.6 1255.8113521215448,455 C 1447.81,432.4 1698.97,120 1735.8113521215448,104 C 1772.65,88 1499.16,320.8 1440,375" stroke="rgba(51, 121, 194, 0.58)" stroke-width="2"></path></g><defs><mask id="SvgjsMask1000"><rect width="1440" height="560" fill="#ffffff"></rect></mask></defs></svg>